<svg width="34" height="33" viewBox="0 0 34 33" fill="#fff" xmlns="http://www.w3.org/2000/svg">
<path d="M24.9366 0H8.807C4.37175 0 0.742188 3.62956 0.742188 8.06481V24.1952C0.742188 28.6293 4.37175 32.26 8.807 32.26H24.9366C29.3719 32.26 33.0014 28.6293 33.0014 24.1952V8.06481C33.0014 3.62956 29.3719 0 24.9366 0ZM30.313 24.1952C30.313 27.159 27.9021 29.5716 24.9366 29.5716H8.807C5.84279 29.5716 3.43059 27.159 3.43059 24.1952V8.06481C3.43059 5.10021 5.84279 2.6884 8.807 2.6884H24.9366C27.9021 2.6884 30.313 5.10021 30.313 8.06481V24.1952Z" fill="#fff"/>
<path d="M24.5821 19.1627H21.8456V30.2432H17.7908C17.7908 30.2432 17.7908 24.1888 17.7908 19.1627H15.8633V15.2465H17.7908V12.7134C17.7908 10.8992 18.5496 8.06445 21.8829 8.06445L24.8876 8.07754V11.8791C24.8876 11.8791 23.0618 11.8791 22.7068 11.8791C22.3517 11.8791 21.847 12.0807 21.847 12.9459V15.2473H24.9364L24.5821 19.1627Z" fill="#ff"/>
</svg>
