<svg width="33" height="33" viewBox="0 0 33 33" fill="none" xmlns="http://www.w3.org/2000/svg">
<path d="M24.1944 0H8.06481C3.62956 0 0 3.62956 0 8.06481V24.1952C0 28.6293 3.62956 32.26 8.06481 32.26H24.1944C28.6297 32.26 32.2593 28.6293 32.2593 24.1952V8.06481C32.2593 3.62956 28.6297 0 24.1944 0ZM29.5709 24.1952C29.5709 27.159 27.1599 29.5716 24.1944 29.5716H8.06481C5.1006 29.5716 2.6884 27.159 2.6884 24.1952V8.06481C2.6884 5.10021 5.1006 2.6884 8.06481 2.6884H24.1944C27.1599 2.6884 29.5709 5.10021 29.5709 8.06481V24.1952Z" fill="#7E7F81"/>
<path d="M16.1293 8.06445C11.6742 8.06445 8.06445 11.6746 8.06445 16.1293C8.06445 20.5822 11.6742 24.1949 16.1293 24.1949C20.583 24.1949 24.1941 20.5822 24.1941 16.1293C24.1941 11.6746 20.583 8.06445 16.1293 8.06445ZM16.1293 21.5065C13.1602 21.5065 10.7529 19.0992 10.7529 16.1293C10.7529 13.1594 13.1602 10.7529 16.1293 10.7529C19.0984 10.7529 21.5057 13.1594 21.5057 16.1293C21.5057 19.0992 19.0984 21.5065 16.1293 21.5065Z" fill="#7E7F81"/>
</svg>
