<svg width="32" height="32" viewBox="0 0 32 32" fill="none" xmlns="http://www.w3.org/2000/svg">
<path d="M0 28.7483C0 20.249 0 11.7492 0 3.24991C0.0206639 3.19356 0.048842 3.13845 0.0601133 3.08022C0.257986 2.07769 0.747659 1.23923 1.61054 0.696947C2.1071 0.385105 2.70009 0.227306 3.24987 0C11.749 0 20.2488 0 28.7479 0C28.8149 0.0219166 28.8807 0.0507212 28.9496 0.0644973C30.7072 0.423303 31.9915 1.92302 31.9934 3.68637C32.0016 11.8926 32.0028 20.0981 31.9934 28.3043C31.9909 30.3194 30.3203 31.9913 28.3046 31.9932C20.0991 32.0026 11.893 32.0026 3.68695 31.9913C2.4803 31.9894 1.50722 31.4509 0.75893 30.5035C0.349408 29.9844 0.162807 29.3726 0 28.7483ZM29.4981 15.9922C29.4981 11.9827 29.4981 7.97387 29.4981 3.96439C29.4981 2.98253 29.0209 2.49974 28.051 2.49974C20.0115 2.49974 11.9726 2.49974 3.93304 2.49974C2.98375 2.49974 2.49971 2.98817 2.49971 3.94623C2.49971 11.9859 2.49971 20.0249 2.49971 28.0645C2.49971 29.0131 2.98938 29.4984 3.94619 29.4984C11.9857 29.4984 20.0246 29.4984 28.0641 29.4984C29.0128 29.4984 29.4981 29.0088 29.4981 28.0513C29.4981 24.0318 29.4981 20.0117 29.4981 15.9922Z" fill="#7E7F81"/>
<path d="M26.1924 26.4825C24.7596 26.4825 23.3568 26.4825 21.9185 26.4825C21.9185 26.3593 21.9185 26.2487 21.9185 26.138C21.9172 23.8088 21.9222 21.479 21.9098 19.1499C21.9073 18.7053 21.8637 18.2557 21.7903 17.8174C21.5489 16.3749 20.584 15.6883 19.1432 15.909C17.9513 16.0916 17.2533 16.7801 17.0237 18.0613C16.936 18.549 16.898 19.0523 16.8949 19.5488C16.8812 21.7429 16.8893 23.937 16.8893 26.1317C16.8893 26.243 16.8893 26.355 16.8893 26.4806C15.4765 26.4806 14.0942 26.4806 12.6895 26.4806C12.6895 21.7967 12.6895 17.1133 12.6895 12.4112C14.0792 12.4112 15.469 12.4112 16.8812 12.4112C16.8812 13.0103 16.8812 13.5993 16.8812 14.1908C16.9217 14.1858 16.949 14.1902 16.9553 14.1808C17.8107 12.8627 19.0779 12.2737 20.5859 12.1611C21.636 12.083 22.675 12.1905 23.6517 12.6332C24.9164 13.2066 25.6001 14.2558 25.8776 15.5658C26.053 16.3943 26.1712 17.2503 26.183 18.0963C26.2222 20.8306 26.2005 23.5662 26.2023 26.3012C26.2023 26.3512 26.1967 26.4019 26.1924 26.4825Z" fill="#7E7F81"/>
<path d="M5.51758 26.483C5.51758 21.7844 5.51758 17.1077 5.51758 12.4141C6.98927 12.4141 8.44821 12.4141 9.93137 12.4141C9.93137 17.0927 9.93137 21.7763 9.93137 26.483C8.47498 26.483 7.00903 26.483 5.51758 26.483Z" fill="#7E7F81"/>
<path d="M10.2077 7.88144C10.1998 9.32165 9.07496 10.4915 7.70613 10.4825C6.34215 10.4736 5.23434 9.28706 5.24223 7.84172C5.24951 6.4015 6.37311 5.23293 7.74376 5.24126C9.10895 5.24894 10.2156 6.43546 10.2077 7.88144Z" fill="#7E7F81"/>
</svg>
